HIERARCHY
ROOT Hips
{
	OFFSET 0.000000 83.214638 0.000000
	CHANNELS 6 Xposition Yposition Zposition Xrotation Yrotation Zrotation
	JOINT Pelvis
	{
		OFFSET 0.000000 0.000000 0.000000
		CHANNELS 3 Xrotation Yrotation Zrotation
		JOINT LeftUpLeg
		{
			OFFSET 8.479700 -4.795502 -0.379100
			CHANNELS 3 Xrotation Yrotation Zrotation
			JOINT LeftLeg
			{
				OFFSET 0.024144 -32.555107 0.112900
				CHANNELS 3 Xrotation Yrotation Zrotation
				JOINT LeftFoot
				{
					OFFSET -0.024144 -32.638630 -3.012600
					CHANNELS 3 Xrotation Yrotation Zrotation
					JOINT LeftToeBase
					{
						OFFSET 0.970200 -13.225400 11.864200
						CHANNELS 3 Xrotation Yrotation Zrotation
						End Site
						{
							OFFSET 0.000000 12.319262 0.000000
						}
					}
					JOINT LFootTongue
					{
						OFFSET 1.142400 -1.059800 6.665200
						CHANNELS 3 Xrotation Yrotation Zrotation
						End Site
						{
							OFFSET 0.000000 12.319262 0.000000
						}
					}
				}
				JOINT LeftPantLeg
				{
					OFFSET 0.918482 -16.533964 -2.284700
					CHANNELS 3 Xrotation Yrotation Zrotation
					End Site
					{
						OFFSET 0.350399 24.744368 0.000000
					}
				}
			}
		}
		JOINT RightUpLeg
		{
			OFFSET -8.479700 -4.795502 -0.379100
			CHANNELS 3 Xrotation Yrotation Zrotation
			JOINT RightLeg
			{
				OFFSET -0.023144 -32.555092 0.112900
				CHANNELS 3 Xrotation Yrotation Zrotation
				JOINT RightFoot
				{
					OFFSET 0.023144 -32.638641 -3.012700
					CHANNELS 3 Xrotation Yrotation Zrotation
					JOINT RightToeBase
					{
						OFFSET -0.970200 -13.225400 11.864200
						CHANNELS 3 Xrotation Yrotation Zrotation
						End Site
						{
							OFFSET 0.000000 12.319244 0.000000
						}
					}
					JOINT RFootTongue
					{
						OFFSET -1.142200 -1.059800 6.665200
						CHANNELS 3 Xrotation Yrotation Zrotation
						End Site
						{
							OFFSET 0.000000 12.319243 0.000000
						}
					}
				}
				JOINT RightPantLeg
				{
					OFFSET -0.919482 -16.533978 -2.284800
					CHANNELS 3 Xrotation Yrotation Zrotation
					End Site
					{
						OFFSET -0.350400 24.744419 0.000000
					}
				}
			}
		}
	}
	JOINT Spine
	{
		OFFSET 0.000000 7.722000 1.166200
		CHANNELS 3 Xrotation Yrotation Zrotation
		JOINT Spine1
		{
			OFFSET 0.000000 12.024101 0.248800
			CHANNELS 3 Xrotation Yrotation Zrotation
			JOINT Spine2
			{
				OFFSET 0.000000 11.502998 -0.491200
				CHANNELS 3 Xrotation Yrotation Zrotation
				JOINT Neck
				{
					OFFSET 0.000000 18.430702 -3.123100
					CHANNELS 3 Xrotation Yrotation Zrotation
					JOINT Head
					{
						OFFSET 0.000000 9.051102 1.034000
						CHANNELS 3 Xrotation Yrotation Zrotation
						JOINT HairB
						{
							OFFSET 0.208400 24.786102 24.822300
							CHANNELS 3 Xrotation Yrotation Zrotation
							End Site
							{
								OFFSET 0.000000 32.263779 0.000000
							}
						}
						JOINT HairA
						{
							OFFSET -7.081100 24.428299 23.196600
							CHANNELS 3 Xrotation Yrotation Zrotation
							End Site
							{
								OFFSET 0.000000 32.263779 0.000000
							}
						}
						JOINT Hat
						{
							OFFSET 16.728800 15.048294 -15.439601
							CHANNELS 3 Xrotation Yrotation Zrotation
							End Site
							{
								OFFSET 0.000000 32.263779 0.000000
							}
						}
					}
				}
				JOINT LeftShoulder
				{
					OFFSET 6.197800 13.665199 -4.064700
					CHANNELS 3 Xrotation Yrotation Zrotation
					JOINT LeftArm
					{
						OFFSET 7.778100 -0.187103 -1.709300
						CHANNELS 3 Xrotation Yrotation Zrotation
						JOINT LeftForeArm
						{
							OFFSET 22.049376 0.000000 0.000000
							CHANNELS 3 Xrotation Yrotation Zrotation
							JOINT LeftHand
							{
								OFFSET 23.009392 0.000000 0.000000
								CHANNELS 3 Xrotation Yrotation Zrotation
								JOINT LeftHandThumb1
								{
									OFFSET 3.507191 -2.063065 3.133727
									CHANNELS 3 Xrotation Yrotation Zrotation
									JOINT LeftHandThumb2
									{
										OFFSET 3.101337 -1.790558 1.790558
										CHANNELS 3 Xrotation Yrotation Zrotation
										JOINT LeftHandThumb3
										{
											OFFSET 3.058640 -1.765907 1.765906
											CHANNELS 3 Xrotation Yrotation Zrotation
											End Site
											{
												OFFSET -0.415260 3.926476 -0.049563
											}
										}
									}
								}
								JOINT LeftHandIndex1
								{
									OFFSET 11.334419 -0.901459 3.706815
									CHANNELS 3 Xrotation Yrotation Zrotation
									JOINT LeftHandIndex2
									{
										OFFSET 3.283112 0.000000 0.000000
										CHANNELS 3 Xrotation Yrotation Zrotation
										JOINT LeftHandIndex3
										{
											OFFSET 3.323853 0.000000 0.000000
											CHANNELS 3 Xrotation Yrotation Zrotation
											End Site
											{
												OFFSET -1.135597 3.097809 0.402452
											}
										}
									}
								}
								JOINT LeftHandMiddle1
								{
									OFFSET 11.335861 0.000000 0.000000
									CHANNELS 3 Xrotation Yrotation Zrotation
									JOINT LeftHandMiddle2
									{
										OFFSET 3.410492 0.000000 0.000000
										CHANNELS 3 Xrotation Yrotation Zrotation
										JOINT LeftHandMiddle3
										{
											OFFSET 3.312172 0.000000 0.000000
											CHANNELS 3 Xrotation Yrotation Zrotation
											End Site
											{
												OFFSET -1.150200 3.080154 0.400270
											}
										}
									}
								}
								JOINT LeftHandRing1
								{
									OFFSET 11.514786 -0.013176 -3.003090
									CHANNELS 3 Xrotation Yrotation Zrotation
									JOINT LeftHandRing2
									{
										OFFSET 3.053307 0.000000 0.000000
										CHANNELS 3 Xrotation Yrotation Zrotation
										JOINT LeftHandRing3
										{
											OFFSET 3.295807 0.000000 0.000000
											CHANNELS 3 Xrotation Yrotation Zrotation
											End Site
											{
												OFFSET -1.281006 3.013344 0.375733
											}
										}
									}
								}
								JOINT LeftHandPinky1
								{
									OFFSET 10.518692 -0.960396 -5.730441
									CHANNELS 3 Xrotation Yrotation Zrotation
									JOINT LeftHandPinky2
									{
										OFFSET 2.861649 0.000000 0.000000
										CHANNELS 3 Xrotation Yrotation Zrotation
										JOINT LeftHandPinky3
										{
											OFFSET 2.863380 0.000000 0.000000
											CHANNELS 3 Xrotation Yrotation Zrotation
											End Site
											{
												OFFSET -0.843597 2.711159 0.369971
											}
										}
									}
								}
							}
							JOINT LSleeve
							{
								OFFSET 6.676277 -0.344902 -1.011730
								CHANNELS 3 Xrotation Yrotation Zrotation
								End Site
								{
									OFFSET 0.000000 14.885353 0.000000
								}
							}
						}
					}
				}
				JOINT RightShoulder
				{
					OFFSET -6.197800 13.665199 -4.064700
					CHANNELS 3 Xrotation Yrotation Zrotation
					JOINT RightArm
					{
						OFFSET -7.778100 -0.187103 -1.709300
						CHANNELS 3 Xrotation Yrotation Zrotation
						JOINT RightForeArm
						{
							OFFSET -22.049376 0.000000 0.000000
							CHANNELS 3 Xrotation Yrotation Zrotation
							JOINT RightHand
							{
								OFFSET -23.009392 0.000000 0.000000
								CHANNELS 3 Xrotation Yrotation Zrotation
								JOINT RightHandThumb1
								{
									OFFSET -3.507191 -2.063065 3.133727
									CHANNELS 3 Xrotation Yrotation Zrotation
									JOINT RightHandThumb2
									{
										OFFSET -3.101337 -1.790558 1.790558
										CHANNELS 3 Xrotation Yrotation Zrotation
										JOINT RightHandThumb3
										{
											OFFSET -3.058640 -1.765907 1.765906
											CHANNELS 3 Xrotation Yrotation Zrotation
											End Site
											{
												OFFSET 0.415260 3.926476 -0.049563
											}
										}
									}
								}
								JOINT RightHandIndex1
								{
									OFFSET -11.334419 -0.901459 3.706815
									CHANNELS 3 Xrotation Yrotation Zrotation
									JOINT RightHandIndex2
									{
										OFFSET -3.283112 0.000000 0.000000
										CHANNELS 3 Xrotation Yrotation Zrotation
										JOINT RightHandIndex3
										{
											OFFSET -3.323853 0.000000 0.000000
											CHANNELS 3 Xrotation Yrotation Zrotation
											End Site
											{
												OFFSET 1.135597 3.097809 0.402452
											}
										}
									}
								}
								JOINT RightHandMiddle1
								{
									OFFSET -11.335861 0.000000 0.000000
									CHANNELS 3 Xrotation Yrotation Zrotation
									JOINT RightHandMiddle2
									{
										OFFSET -3.410492 0.000000 0.000000
										CHANNELS 3 Xrotation Yrotation Zrotation
										JOINT RightHandMiddle3
										{
											OFFSET -3.312172 0.000000 0.000000
											CHANNELS 3 Xrotation Yrotation Zrotation
											End Site
											{
												OFFSET 1.150200 3.080154 0.400270
											}
										}
									}
								}
								JOINT RightHandRing1
								{
									OFFSET -11.514786 -0.013176 -3.003090
									CHANNELS 3 Xrotation Yrotation Zrotation
									JOINT RightHandRing2
									{
										OFFSET -3.053307 0.000000 0.000000
										CHANNELS 3 Xrotation Yrotation Zrotation
										JOINT RightHandRing3
										{
											OFFSET -3.295807 0.000000 0.000000
											CHANNELS 3 Xrotation Yrotation Zrotation
											End Site
											{
												OFFSET 1.281006 3.013344 0.375733
											}
										}
									}
								}
								JOINT RightHandPinky1
								{
									OFFSET -10.518692 -0.960396 -5.730441
									CHANNELS 3 Xrotation Yrotation Zrotation
									JOINT RightHandPinky2
									{
										OFFSET -2.861649 0.000000 0.000000
										CHANNELS 3 Xrotation Yrotation Zrotation
										JOINT RightHandPinky3
										{
											OFFSET -2.863380 0.000000 0.000000
											CHANNELS 3 Xrotation Yrotation Zrotation
											End Site
											{
												OFFSET 0.843597 2.711159 0.369971
											}
										}
									}
								}
							}
							JOINT RSleeve
							{
								OFFSET -6.676277 -0.344902 -1.011730
								CHANNELS 3 Xrotation Yrotation Zrotation
								End Site
								{
									OFFSET 0.000000 14.885353 0.000000
								}
							}
						}
					}
				}
				JOINT Backpack
				{
					OFFSET 0.000000 -2.471497 36.677502
					CHANNELS 3 Xrotation Yrotation Zrotation
					End Site
					{
						OFFSET 0.000000 20.427315 0.000000
					}
				}
				JOINT Hood
				{
					OFFSET 0.000000 18.754097 -10.431000
					CHANNELS 3 Xrotation Yrotation Zrotation
					JOINT Hood1
					{
						OFFSET 0.000000 -5.011002 -7.685901
						CHANNELS 3 Xrotation Yrotation Zrotation
						End Site
						{
							OFFSET 0.000000 9.175140 0.000000
						}
					}
				}
				JOINT LHoodieString
				{
					OFFSET 5.250500 16.397697 3.089900
					CHANNELS 3 Xrotation Yrotation Zrotation
					JOINT LHoodieString1
					{
						OFFSET 0.257700 -6.364304 3.694600
						CHANNELS 3 Xrotation Yrotation Zrotation
						JOINT LHoodieString2
						{
							OFFSET 0.000000 -9.643799 2.679100
							CHANNELS 3 Xrotation Yrotation Zrotation
							End Site
							{
								OFFSET 0.000000 10.009018 0.000000
							}
						}
					}
				}
				JOINT RHoodieString
				{
					OFFSET -5.250500 16.397697 3.089900
					CHANNELS 3 Xrotation Yrotation Zrotation
					JOINT RHoodieString1
					{
						OFFSET -0.257700 -6.364304 3.694600
						CHANNELS 3 Xrotation Yrotation Zrotation
						JOINT RHoodieString2
						{
							OFFSET 0.000000 -9.643799 2.679100
							CHANNELS 3 Xrotation Yrotation Zrotation
							End Site
							{
								OFFSET 0.000000 10.009018 0.000000
							}
						}
					}
				}
			}
			JOINT LBackpack_Strap
			{
				OFFSET 15.223200 -7.719803 -6.610900
				CHANNELS 3 Xrotation Yrotation Zrotation
				End Site
				{
					OFFSET 0.000000 16.040596 0.000000
				}
			}
			JOINT RBackpack_Strap
			{
				OFFSET -15.223000 -7.719803 -6.610900
				CHANNELS 3 Xrotation Yrotation Zrotation
				End Site
				{
					OFFSET 0.000000 16.040596 0.000000
				}
			}
		}
	}
	JOINT BoyFacialAnim_Joint
	{
		OFFSET 1.000000 -82.208099 -1.550900
		CHANNELS 3 Xrotation Yrotation Zrotation
		End Site
		{
			OFFSET 0.000000 30.012791 0.000000
		}
	}
}
MOTION
Frames: 4
Frame Time: 0.033333
-19.397091 78.225540 -3.299198 23.646405 16.112307 -14.290097 -0.000000 -0.000001 0.000000 -10.027402 7.177398 -11.355761 14.285277 10.792959 -5.165278 -7.793891 19.971757 6.929301 -0.000000 -0.000003 0.000002 -0.000000 -0.000003 0.000002 0.000002 0.000003 -0.000002 -35.247553 3.260314 -2.194120 27.606757 -6.714521 0.204093 -12.191640 -15.613189 11.314345 -0.000000 0.000000 0.000000 -0.000000 0.000000 0.000000 0.000001 0.000001 -0.000000 0.110610 -2.071996 5.463527 0.490111 -5.161677 7.887371 0.601085 -5.059563 7.961566 -5.982103 1.190946 -0.406980 -1.520477 5.006488 0.796685 -0.000001 -0.000001 -0.000000 -0.000001 -0.000001 -0.000000 -0.000001 -0.000001 -0.000000 -1.030131 9.813518 -4.287390 197.844393 -87.874796 178.750777 0.000008 -76.853425 0.000008 20.950087 -30.450954 23.178389 -1.623354 8.802365 6.907267 -0.427774 22.610670 16.689275 -0.000002 -0.000003 -0.000001 -0.000003 0.000002 -0.000005 -0.000001 -0.000005 0.000010 -0.000002 -0.000001 -0.000000 -0.000007 -0.001929 0.015986 0.000005 0.001929 -0.015981 0.000000 -0.000002 0.000002 0.000001 -0.000001 -0.000004 -0.000005 -0.000000 -0.000006 0.000001 -0.000000 -0.000004 -0.018085 4.054256 0.511063 -0.018085 -4.054254 -0.511066 0.000003 0.000003 -0.000005 0.000002 0.000000 0.000000 -0.521316 -9.859322 3.078385 24.583586 42.115295 56.401342 -0.000004 7.339370 -0.000002 -31.034669 -12.102293 -40.691948 -1.898145 -6.986639 -7.116760 6.574153 -31.362357 -1.578239 -0.000004 -0.000002 0.000002 0.000002 -0.000000 0.000001 -0.000001 0.000001 -0.000016 0.000001 -0.000001 -0.000000 0.000001 0.000003 -0.000008 0.000001 -0.000002 0.000017 0.000003 0.000000 0.000003 -0.000000 0.000004 -0.000015 0.000001 0.000001 0.000022 0.000001 0.000000 0.000004 0.000001 0.000001 -0.000001 -0.000005 0.000000 -0.000016 -0.000000 0.000000 0.000002 -0.000001 -0.000000 -0.000001 0.000002 0.000000 0.000001 0.000002 0.000000 0.000001 0.000002 0.000000 0.000001 0.000002 0.000000 0.000001 0.000002 0.000000 0.000000 0.000000 0.000000 -0.000001 0.000002 0.000000 0.000001 0.000002 0.000000 0.000000 0.000000 0.000000 -0.000001 0.000002 0.000000 0.000000 0.000002 0.000000 0.000000 -0.000000 -0.000001 0.000000 
-19.425772 78.558815 -3.022902 21.788109 19.222712 -13.628072 0.000001 0.000001 -0.000000 -18.677432 9.619368 -6.096439 32.101172 10.579027 -8.206739 5.722547 16.885013 -0.129472 0.000002 0.000000 0.000001 0.000002 0.000000 0.000001 0.000001 -0.000002 0.000001 -33.616023 18.036269 4.186145 27.304965 -7.507133 -3.256849 -15.790583 -1.774117 10.600343 -0.000000 0.000002 0.000000 -0.000000 0.000002 0.000000 0.000002 0.000001 0.000000 0.513906 -2.579653 4.736560 1.350565 -6.082502 7.391823 1.435276 -5.969058 7.480149 -7.159742 0.997166 0.333953 -0.916950 5.294389 0.144049 0.000001 0.000000 -0.000000 0.000001 0.000000 -0.000000 0.000001 0.000000 -0.000000 -0.772168 8.728335 -4.402637 128.536169 -83.044664 99.066853 -0.000011 -63.353365 -0.000011 24.001549 -18.388959 47.633415 -1.623353 8.802364 6.907269 -0.427776 22.610670 16.689282 -0.000002 -0.000004 0.000001 -0.000000 0.000001 -0.000007 0.000001 -0.000002 0.000008 0.000001 0.000002 -0.000005 -0.000004 -0.001929 0.015980 0.000001 0.001932 -0.015979 0.000000 -0.000001 0.000000 0.000004 -0.000001 -0.000001 -0.000003 -0.000000 -0.000002 -0.000001 0.000001 -0.000002 -0.018083 4.054256 0.511065 -0.018088 -4.054254 -0.511064 -0.000000 -0.000002 0.000005 -0.000001 0.000002 -0.000001 -0.702646 -13.201645 4.742718 18.050783 41.797165 56.171520 0.000007 10.538160 0.000013 -38.094625 -3.414034 -43.941332 -1.898144 -6.986640 -7.116768 6.574151 -31.362361 -1.578242 -0.000004 0.000004 -0.000002 0.000000 -0.000002 -0.000000 -0.000002 0.000003 -0.000019 -0.000002 -0.000000 -0.000003 0.000002 -0.000001 -0.000011 0.000003 -0.000001 0.000023 0.000002 -0.000001 -0.000002 -0.000001 0.000003 -0.000013 0.000001 -0.000001 0.000023 0.000000 0.000001 -0.000003 -0.000000 -0.000000 -0.000010 -0.000001 0.000001 -0.000012 0.000000 -0.000001 0.000000 0.000000 -0.000001 0.000000 0.000001 -0.000001 -0.000001 0.000001 -0.000001 -0.000001 0.000001 -0.000001 -0.000001 0.000001 -0.000001 -0.000001 0.000001 -0.000001 -0.000001 0.000002 -0.000000 0.000000 0.000001 -0.000001 -0.000001 0.000001 -0.000001 -0.000001 0.000002 -0.000000 0.000000 -0.000002 -0.000001 0.000000 -0.000002 -0.000001 0.000000 0.000001 0.000001 -0.000000 
-19.605392 78.086769 -2.707947 19.676108 22.676573 -13.363737 -0.000001 -0.000000 -0.000000 -26.520588 11.006910 -1.297959 43.882476 10.270748 -6.796352 25.391168 9.734624 -4.229725 0.000000 0.000000 0.000002 0.000000 0.000000 0.000002 -0.000002 0.000004 -0.000002 -34.549870 28.341696 11.526183 31.900286 -1.353981 -5.594309 -20.075292 -1.536171 6.775142 -0.000000 0.000000 0.000000 -0.000000 0.000000 0.000000 -0.000001 0.000000 -0.000001 0.920808 -3.101811 4.038882 2.151557 -7.315267 6.842556 2.204796 -7.217712 6.935669 -7.788968 0.786231 1.174483 -0.655459 5.647090 0.238342 0.000001 -0.000000 -0.000000 0.000001 -0.000000 -0.000000 0.000001 -0.000000 -0.000000 -0.382760 7.501155 -5.036971 127.579464 -80.489893 87.819383 0.000006 -43.087845 0.000004 29.488126 -23.889422 60.634895 -1.623357 8.802366 6.907269 -0.427775 22.610670 16.689274 0.000001 0.000000 -0.000001 -0.000003 0.000001 -0.000002 -0.000000 0.000001 0.000007 -0.000000 0.000000 -0.000005 -0.000007 -0.001928 0.015983 0.000006 0.001930 -0.015979 0.000000 0.000000 0.000000 0.000001 -0.000002 0.000001 -0.000005 -0.000006 0.000000 -0.000000 0.000000 -0.000000 -0.018088 4.054259 0.511064 -0.018087 -4.054253 -0.511065 0.000002 0.000001 0.000002 -0.000000 0.000002 -0.000002 -0.760005 -16.036868 6.527351 8.549881 40.508568 60.079252 0.000004 11.367556 -0.000003 -37.580719 7.892418 -44.551855 -1.898146 -6.986641 -7.116761 6.574150 -31.362357 -1.578240 0.000000 -0.000001 0.000001 0.000001 -0.000001 -0.000000 -0.000001 0.000003 -0.000014 -0.000000 0.000000 0.000002 0.000002 -0.000000 -0.000007 0.000001 -0.000001 0.000016 -0.000000 0.000000 -0.000002 0.000001 0.000001 -0.000010 0.000000 0.000001 0.000021 0.000000 0.000001 0.000000 -0.000001 -0.000001 -0.000006 -0.000001 0.000001 -0.000008 0.000001 0.000000 -0.000001 0.000001 0.000001 0.000000 0.000001 -0.000000 -0.000000 0.000001 -0.000000 -0.000000 0.000001 -0.000000 -0.000000 0.000001 -0.000000 -0.000000 0.000001 -0.000000 0.000000 0.000001 0.000000 0.000001 0.000001 -0.000000 -0.000000 0.000001 -0.000000 0.000000 0.000001 0.000000 0.000001 0.000001 0.000000 0.000000 0.000001 0.000000 0.000000 -0.000001 -0.000000 -0.000000 
-19.687332 77.300636 -2.493876 17.818895 26.495998 -14.085087 0.000000 0.000001 -0.000000 -36.923067 10.136842 3.427656 60.916176 10.081233 -4.372511 26.147568 5.215062 -2.351475 -0.000000 0.000000 0.000002 -0.000000 0.000000 0.000002 -0.000001 -0.000000 0.000000 -34.496967 29.542317 14.930068 36.064987 -0.158994 -5.643462 -22.974108 -1.323158 4.738836 -0.000000 -0.000000 0.000000 -0.000000 -0.000000 0.000000 0.000000 0.000000 -0.000001 1.329924 -3.773489 3.364477 2.896031 -8.823985 6.651181 2.906138 -8.740654 6.751418 -7.757331 0.465849 2.001417 -1.147703 5.407467 0.724047 -0.000000 -0.000000 -0.000000 -0.000000 -0.000000 -0.000000 -0.000000 -0.000000 -0.000000 0.033445 6.151600 -5.807936 101.205788 -87.196107 52.877108 0.000002 -25.392985 -0.000002 34.742003 -35.658618 62.560476 -1.623355 8.802364 6.907266 -0.427777 22.610668 16.689277 -0.000000 0.000002 -0.000000 -0.000001 0.000004 -0.000006 0.000001 -0.000005 0.000008 0.000000 0.000000 -0.000005 -0.000005 -0.001928 0.015985 0.000004 0.001926 -0.015978 0.000000 -0.000001 -0.000002 -0.000000 -0.000002 0.000001 -0.000005 -0.000006 -0.000001 0.000001 -0.000001 -0.000004 -0.018085 4.054259 0.511062 -0.018086 -4.054255 -0.511064 -0.000000 0.000000 -0.000000 0.000000 -0.000003 0.000000 -0.714933 -18.925206 8.667789 -0.909313 38.215796 65.539367 0.000001 11.418890 0.000004 -29.524456 16.815536 -45.929231 -1.898145 -6.986640 -7.116765 6.574154 -31.362361 -1.578242 0.000001 0.000001 0.000002 0.000004 -0.000001 -0.000000 0.000000 0.000003 -0.000015 -0.000003 0.000000 0.000002 0.000003 0.000000 -0.000008 0.000003 -0.000002 0.000019 0.000002 0.000001 -0.000004 0.000002 0.000001 -0.000012 0.000001 -0.000001 0.000023 -0.000001 -0.000000 0.000004 0.000000 -0.000001 -0.000005 -0.000001 0.000004 -0.000013 0.000001 0.000000 -0.000003 0.000001 -0.000000 -0.000001 0.000001 -0.000000 0.000000 0.000001 -0.000000 0.000000 0.000001 -0.000000 0.000000 0.000001 -0.000000 0.000000 0.000001 -0.000000 0.000000 -0.000001 0.000000 -0.000000 0.000001 -0.000000 0.000000 0.000001 -0.000000 0.000000 -0.000001 0.000000 -0.000000 0.000001 0.000000 0.000000 0.000001 0.000000 0.000000 0.000000 0.000001 -0.000000 
